<svg xmlns="http://www.w3.org/2000/svg" xmlns:xlink="http://www.w3.org/1999/xlink" width="500" zoomAndPan="magnify" viewBox="0 0 375 374.999991" height="500" preserveAspectRatio="xMidYMid meet" version="1.0"><rect x="-37.5" width="450" fill="#ffffff" y="-37.499999" height="449.999989" fill-opacity="1"/><rect x="-37.5" width="450" fill="#ffffff" y="-37.499999" height="449.999989" fill-opacity="1"/><path fill="#ff4c4c" d="M 180.925781 119.269531 C 35.832031 65.347656 55.394531 327.714844 183.488281 300.640625 C 186.050781 300.171875 188.378906 300.171875 190.941406 300.640625 C 319.035156 327.714844 338.832031 65.347656 193.503906 119.269531 C 189.308594 120.902344 185.117188 120.902344 180.925781 119.269531 Z M 180.925781 119.269531 " fill-opacity="1" fill-rule="evenodd"/><path fill="#663333" d="M 184.886719 110.398438 C 179.527344 94.761719 159.964844 96.394531 159.964844 85.890625 C 159.964844 76.085938 179.527344 67.683594 184.886719 110.398438 Z M 184.886719 110.398438 " fill-opacity="1" fill-rule="evenodd"/><path fill="#42d66f" d="M 249.164062 48.308594 C 249.628906 64.414062 243.808594 80.519531 231.699219 92.894531 C 219.585938 105.03125 203.285156 110.867188 187.214844 110.398438 C 186.75 94.292969 192.335938 77.953125 204.679688 65.816406 C 216.792969 53.445312 233.09375 47.609375 249.164062 48.308594 Z M 249.164062 48.308594 " fill-opacity="1" fill-rule="evenodd"/><path fill="#45ff7d" d="M 187.214844 110.398438 C 186.75 94.292969 192.335938 77.953125 204.679688 65.816406 C 216.792969 53.445312 233.09375 47.609375 249.164062 48.308594 Z M 187.214844 110.398438 " fill-opacity="1" fill-rule="evenodd"/></svg>